<?xml version="1.0" encoding="UTF-8"?>
<svg xmlns="http://www.w3.org/2000/svg" xmlns:xlink="http://www.w3.org/1999/xlink"
     width="411.7" height="363.5" viewBox="0 0 411.7 363.5">
<defs>
</defs>
<path d="M111.69999999999999,15.0 L111.69999999999999,335.0" stroke="#b8b8b8" stroke-width="0.7" stroke-dasharray="4,4" />
<path d="M211.7,15.0 L211.7,335.0" stroke="#b8b8b8" stroke-width="0.7" stroke-dasharray="4,4" />
<path d="M311.7,15.0 L311.7,335.0" stroke="#b8b8b8" stroke-width="0.7" stroke-dasharray="4,4" />
<path d="M111.69999999999999,325.0 L191.7,325.0 A20,20,0,0,0,211.7,305.0 L211.7,275.0" stroke="#7b8fb2" stroke-width="2" fill="none" stroke-linecap="round" />
<path d="M111.69999999999999,325.0 L291.7,325.0 A20,20,0,0,0,311.7,305.0 L311.7,275.0" stroke="#6a9f8d" stroke-width="2" fill="none" stroke-linecap="round" />
<path d="M111.69999999999999,125.0 L191.7,125.0 A20,20,0,0,0,211.7,105.0 L211.7,75.0" stroke="#b07b8f" stroke-width="2" fill="none" stroke-linecap="round" />
<path d="M211.7,275.0 L211.7,245.0 A20,20,0,0,0,191.7,225.0 L111.69999999999999,225.0" stroke="#7b8fb2" stroke-width="2" fill="none" stroke-linecap="round" />
<path d="M311.7,275.0 L311.7,195.0 A20,20,0,0,0,291.7,175.0 L111.69999999999999,175.0" stroke="#6a9f8d" stroke-width="2" fill="none" stroke-linecap="round" />
<path d="M211.7,75.0 L211.7,45.0 A20,20,0,0,0,191.7,25.0 L111.69999999999999,25.0" stroke="#b07b8f" stroke-width="2" fill="none" stroke-linecap="round" />
<path d="M111.69999999999999,325.0 L111.69999999999999,25.0" stroke="#5c6370" stroke-width="2" stroke-linecap="round" />
<rect x="92.94" y="340.5" width="37.519999999999996" height="19" rx="4" ry="4" fill="#5c6370" opacity="0.85" />
<text x="111.69999999999999" y="350.0" font-size="11" text-anchor="middle" dominant-baseline="middle" fill="white" font-family="'Inter', 'Helvetica Neue', Helvetica, Arial, sans-serif" font-weight="500">main</text>
<rect x="176.99" y="290.5" width="69.41999999999999" height="19" rx="4" ry="4" fill="#7b8fb2" opacity="0.85" />
<text x="211.7" y="300.0" font-size="11" text-anchor="middle" dominant-baseline="middle" fill="white" font-family="'Inter', 'Helvetica Neue', Helvetica, Arial, sans-serif" font-weight="500">feature-a</text>
<rect x="286.56" y="290.5" width="50.279999999999994" height="19" rx="4" ry="4" fill="#6a9f8d" opacity="0.85" />
<text x="311.7" y="300.0" font-size="11" text-anchor="middle" dominant-baseline="middle" fill="white" font-family="'Inter', 'Helvetica Neue', Helvetica, Arial, sans-serif" font-weight="500">bugfix</text>
<rect x="176.99" y="90.5" width="69.41999999999999" height="19" rx="4" ry="4" fill="#b07b8f" opacity="0.85" />
<text x="211.7" y="100.0" font-size="11" text-anchor="middle" dominant-baseline="middle" fill="white" font-family="'Inter', 'Helvetica Neue', Helvetica, Arial, sans-serif" font-weight="500">feature-b</text>
<circle cx="111.69999999999999" cy="325.0" r="5" fill="#5c6370" stroke="white" stroke-width="1.5" />
<circle cx="211.7" cy="275.0" r="5" fill="#7b8fb2" stroke="white" stroke-width="1.5" />
<circle cx="311.7" cy="275.0" r="5" fill="#6a9f8d" stroke="white" stroke-width="1.5" />
<circle cx="111.69999999999999" cy="225.0" r="5" fill="#5c6370" stroke="white" stroke-width="1.5" />
<circle cx="111.69999999999999" cy="175.0" r="5" fill="#5c6370" stroke="white" stroke-width="1.5" />
<circle cx="111.69999999999999" cy="125.0" r="5" fill="#5c6370" stroke="white" stroke-width="1.5" />
<circle cx="211.7" cy="75.0" r="5" fill="#b07b8f" stroke="white" stroke-width="1.5" />
<circle cx="111.69999999999999" cy="25.0" r="5" fill="#5c6370" stroke="white" stroke-width="1.5" />
<text x="99.69999999999999" y="317.5" font-size="11" text-anchor="end" dominant-baseline="middle" fill="#383838" font-family="'Inter', 'Helvetica Neue', Helvetica, Arial, sans-serif" font-weight="400">initial commit</text>
<text x="99.69999999999999" y="332.5" font-size="9" text-anchor="end" dominant-baseline="middle" fill="#707070" font-family="'Inter', 'Helvetica Neue', Helvetica, Arial, sans-serif" font-weight="400">1b35060</text>
<text x="223.7" y="267.5" font-size="11" text-anchor="start" dominant-baseline="middle" fill="#383838" font-family="'Inter', 'Helvetica Neue', Helvetica, Arial, sans-serif" font-weight="400">start feature A</text>
<text x="223.7" y="282.5" font-size="9" text-anchor="start" dominant-baseline="middle" fill="#707070" font-family="'Inter', 'Helvetica Neue', Helvetica, Arial, sans-serif" font-weight="400">a8ba520</text>
<text x="323.7" y="267.5" font-size="11" text-anchor="start" dominant-baseline="middle" fill="#383838" font-family="'Inter', 'Helvetica Neue', Helvetica, Arial, sans-serif" font-weight="400">fix #42</text>
<text x="323.7" y="282.5" font-size="9" text-anchor="start" dominant-baseline="middle" fill="#707070" font-family="'Inter', 'Helvetica Neue', Helvetica, Arial, sans-serif" font-weight="400">ff2bf3a</text>
<text x="99.69999999999999" y="217.5" font-size="11" text-anchor="end" dominant-baseline="middle" fill="#383838" font-family="'Inter', 'Helvetica Neue', Helvetica, Arial, sans-serif" font-weight="400">merge feature A</text>
<text x="99.69999999999999" y="232.5" font-size="9" text-anchor="end" dominant-baseline="middle" fill="#707070" font-family="'Inter', 'Helvetica Neue', Helvetica, Arial, sans-serif" font-weight="400">c521ba8</text>
<text x="99.69999999999999" y="167.5" font-size="11" text-anchor="end" dominant-baseline="middle" fill="#383838" font-family="'Inter', 'Helvetica Neue', Helvetica, Arial, sans-serif" font-weight="400">merge bugfix</text>
<text x="99.69999999999999" y="182.5" font-size="9" text-anchor="end" dominant-baseline="middle" fill="#707070" font-family="'Inter', 'Helvetica Neue', Helvetica, Arial, sans-serif" font-weight="400">dca1553</text>
<text x="99.69999999999999" y="117.5" font-size="11" text-anchor="end" dominant-baseline="middle" fill="#383838" font-family="'Inter', 'Helvetica Neue', Helvetica, Arial, sans-serif" font-weight="400">release prep</text>
<text x="99.69999999999999" y="132.5" font-size="9" text-anchor="end" dominant-baseline="middle" fill="#707070" font-family="'Inter', 'Helvetica Neue', Helvetica, Arial, sans-serif" font-weight="400">b2ed627</text>
<text x="223.7" y="67.5" font-size="11" text-anchor="start" dominant-baseline="middle" fill="#383838" font-family="'Inter', 'Helvetica Neue', Helvetica, Arial, sans-serif" font-weight="400">feature B</text>
<text x="223.7" y="82.5" font-size="9" text-anchor="start" dominant-baseline="middle" fill="#707070" font-family="'Inter', 'Helvetica Neue', Helvetica, Arial, sans-serif" font-weight="400">b8e625f</text>
<text x="99.69999999999999" y="17.5" font-size="11" text-anchor="end" dominant-baseline="middle" fill="#383838" font-family="'Inter', 'Helvetica Neue', Helvetica, Arial, sans-serif" font-weight="400">merge feature B</text>
<text x="99.69999999999999" y="32.5" font-size="9" text-anchor="end" dominant-baseline="middle" fill="#707070" font-family="'Inter', 'Helvetica Neue', Helvetica, Arial, sans-serif" font-weight="400">d193154</text>
</svg>