<?xml version="1.0" encoding="UTF-8"?>
<svg xmlns="http://www.w3.org/2000/svg" xmlns:xlink="http://www.w3.org/1999/xlink"
     width="323.4" height="213.5" viewBox="0 0 323.4 213.5">
<defs>
</defs>
<path d="M105.32,15.0 L105.32,185.0" stroke="#b8b8b8" stroke-width="0.7" stroke-dasharray="4,4" />
<path d="M205.32,15.0 L205.32,185.0" stroke="#b8b8b8" stroke-width="0.7" stroke-dasharray="4,4" />
<path d="M105.32,75.0 L185.32,75.0 A20,20,0,0,0,205.32,55.0 L205.32,25.0" stroke="#7b8fb2" stroke-width="2" fill="none" stroke-linecap="round" />
<path d="M105.32,175.0 L105.32,75.0" stroke="#5c6370" stroke-width="2" stroke-linecap="round" />
<path d="M205.32,25.0 L205.32,25.0" stroke="#7b8fb2" stroke-width="2" stroke-linecap="round" />
<rect x="86.56" y="190.5" width="37.519999999999996" height="19" rx="4" ry="4" fill="#5c6370" opacity="0.85" />
<text x="105.32" y="200.0" font-size="11" text-anchor="middle" dominant-baseline="middle" fill="white" font-family="Inter, sans-serif" font-weight="500">main</text>
<rect x="176.99" y="40.5" width="56.66" height="19" rx="4" ry="4" fill="#7b8fb2" opacity="0.85" />
<text x="205.32" y="50.0" font-size="11" text-anchor="middle" dominant-baseline="middle" fill="white" font-family="Inter, sans-serif" font-weight="500">feature</text>
<circle cx="105.32" cy="175.0" r="5" fill="#5c6370" stroke="white" stroke-width="1.5" />
<circle cx="105.32" cy="125.0" r="5" fill="#5c6370" stroke="white" stroke-width="1.5" />
<circle cx="105.32" cy="75.0" r="5" fill="#5c6370" stroke="white" stroke-width="1.5" />
<circle cx="205.32" cy="25.0" r="5" fill="#7b8fb2" stroke="white" stroke-width="1.5" />
<text x="93.32" y="167.5" font-size="11" text-anchor="end" dominant-baseline="middle" fill="#383838" font-family="Inter, sans-serif" font-weight="400">initial commit</text>
<text x="93.32" y="182.5" font-size="9" text-anchor="end" dominant-baseline="middle" fill="#707070" font-family="Inter, sans-serif" font-weight="400">1b35060</text>
<text x="93.32" y="117.5" font-size="11" text-anchor="end" dominant-baseline="middle" fill="#383838" font-family="Inter, sans-serif" font-weight="400">main moves on</text>
<text x="93.32" y="132.5" font-size="9" text-anchor="end" dominant-baseline="middle" fill="#707070" font-family="Inter, sans-serif" font-weight="400">b1e760e</text>
<text x="93.32" y="67.5" font-size="11" text-anchor="end" dominant-baseline="middle" fill="#383838" font-family="Inter, sans-serif" font-weight="400">more main work</text>
<text x="93.32" y="82.5" font-size="9" text-anchor="end" dominant-baseline="middle" fill="#707070" font-family="Inter, sans-serif" font-weight="400">62a6989</text>
<text x="217.32" y="17.5" font-size="11" text-anchor="start" dominant-baseline="middle" fill="#383838" font-family="Inter, sans-serif" font-weight="400">complete feature</text>
<text x="217.32" y="32.5" font-size="9" text-anchor="start" dominant-baseline="middle" fill="#707070" font-family="Inter, sans-serif" font-weight="400">d29397d</text>
</svg>