<?xml version="1.0" encoding="UTF-8"?>
<svg xmlns="http://www.w3.org/2000/svg" xmlns:xlink="http://www.w3.org/1999/xlink"
     width="300" height="213.5" viewBox="0 0 300 213.5">
<defs>
</defs>
<path d="M100,15.0 L100,185.0" stroke="#b8b8b8" stroke-width="0.7" stroke-dasharray="4,4" />
<path d="M200,15.0 L200,185.0" stroke="#b8b8b8" stroke-width="0.7" stroke-dasharray="4,4" />
<path d="M100,175.0 L180,175.0 A20,20,0,0,0,200,155.0 L200,125.0" stroke="#7b8fb2" stroke-width="2" fill="none" stroke-linecap="round" />
<path d="M200,75.0 L200,45.0 A20,20,0,0,0,180,25.0 L100,25.0" stroke="#7b8fb2" stroke-width="2" fill="none" stroke-linecap="round" stroke-dasharray="6,4" />
<path d="M100,175.0 L100,125.0" stroke="#5c6370" stroke-width="2" stroke-linecap="round" />
<path d="M200,125.0 L200,75.0" stroke="#7b8fb2" stroke-width="2" stroke-linecap="round" />
<rect x="81.24000000000001" y="190.5" width="37.519999999999996" height="19" rx="4" ry="4" fill="#5c6370" opacity="0.85" />
<text x="100" y="200.0" font-size="11" text-anchor="middle" dominant-baseline="middle" fill="white" font-family="'Inter', 'Helvetica Neue', Helvetica, Arial, sans-serif" font-weight="500">main</text>
<rect x="171.67000000000002" y="140.5" width="56.66" height="19" rx="4" ry="4" fill="#7b8fb2" opacity="0.85" />
<text x="200" y="150.0" font-size="11" text-anchor="middle" dominant-baseline="middle" fill="white" font-family="'Inter', 'Helvetica Neue', Helvetica, Arial, sans-serif" font-weight="500">feature</text>
<rect x="146.15" y="40.5" width="107.69999999999999" height="19" rx="4" ry="4" fill="#7b8fb2" opacity="0.85" />
<text x="200" y="50.0" font-size="11" text-anchor="middle" dominant-baseline="middle" fill="white" font-family="'Inter', 'Helvetica Neue', Helvetica, Arial, sans-serif" font-weight="500">PR 1: add thing</text>
<circle cx="100" cy="175.0" r="5" fill="#5c6370" stroke="white" stroke-width="1.5" />
<circle cx="200" cy="125.0" r="5" fill="#7b8fb2" stroke="white" stroke-width="1.5" />
<circle cx="200" cy="75.0" r="5" fill="#7b8fb2" stroke="white" stroke-width="1.5" />
<circle cx="100" cy="125.0" r="5" fill="#5c6370" stroke="white" stroke-width="1.5" />
<text x="88" y="175.0" font-size="11" text-anchor="end" dominant-baseline="middle" fill="#383838" font-family="'Inter', 'Helvetica Neue', Helvetica, Arial, sans-serif" font-weight="400">release</text>
<text x="212" y="125.0" font-size="11" text-anchor="start" dominant-baseline="middle" fill="#383838" font-family="'Inter', 'Helvetica Neue', Helvetica, Arial, sans-serif" font-weight="400">wip</text>
<text x="212" y="75.0" font-size="11" text-anchor="start" dominant-baseline="middle" fill="#383838" font-family="'Inter', 'Helvetica Neue', Helvetica, Arial, sans-serif" font-weight="400">polish</text>
<text x="88" y="125.0" font-size="11" text-anchor="end" dominant-baseline="middle" fill="#383838" font-family="'Inter', 'Helvetica Neue', Helvetica, Arial, sans-serif" font-weight="400">hotfix</text>
</svg>