<?xml version="1.0" encoding="UTF-8"?>
<svg xmlns="http://www.w3.org/2000/svg" xmlns:xlink="http://www.w3.org/1999/xlink"
     width="300.0" height="213.5" viewBox="0 0 300.0 213.5">
<defs>
</defs>
<path d="M100.0,12.5 L100.0,187.5" stroke="#b8b8b8" stroke-width="0.7" stroke-dasharray="4,4" />
<path d="M200.0,12.5 L200.0,187.5" stroke="#b8b8b8" stroke-width="0.7" stroke-dasharray="4,4" />
<path d="M100.0,175.0 L100.0,25.0" stroke="#4a4f5a" stroke-width="2" stroke-linecap="round" />
<path d="M100.0,175.0 L180.0,175.0 A20,20,0,0,0,200.0,155.0 L200.0,125.0" stroke="#56b393" stroke-width="2" fill="none" stroke-linecap="round" />
<path d="M200.0,125.0 L200.0,75.0" stroke="#56b393" stroke-width="2" stroke-linecap="round" />
<path d="M200.0,75.0 L200.0,45.0 A20,20,0,0,0,180.0,25.0 L100.0,25.0" stroke="#56b393" stroke-width="2" fill="none" stroke-linecap="round" stroke-dasharray="2,6" />
<circle cx="100.0" cy="175.0" r="5" fill="#4a4f5a" stroke="white" stroke-width="1.5" />
<circle cx="200.0" cy="125.0" r="5" fill="#56b393" stroke="white" stroke-width="1.5" />
<circle cx="200.0" cy="75.0" r="5" fill="#56b393" stroke="white" stroke-width="1.5" />
<circle cx="100.0" cy="125.0" r="5" fill="#4a4f5a" stroke="white" stroke-width="1.5" />
<rect x="80.2580575" y="190.5" width="39.483885" height="19.0" rx="4" ry="4" fill="#4a4f5a" opacity="0.85" />
<text x="100.0" y="200.0" font-size="11.0" text-anchor="middle" dominant-baseline="middle" fill="white" font-family="'Inter', 'Helvetica Neue', Helvetica, Arial, sans-serif" font-weight="500">main</text>
<rect x="173.922855" y="140.5" width="52.15429" height="19.0" rx="4" ry="4" fill="#56b393" opacity="0.85" />
<text x="200.0" y="150.0" font-size="11.0" text-anchor="middle" dominant-baseline="middle" fill="white" font-family="'Inter', 'Helvetica Neue', Helvetica, Arial, sans-serif" font-weight="500">feature</text>
<rect x="151.568358" y="40.5" width="96.86328400000001" height="19.0" rx="4" ry="4" fill="#56b393" opacity="0.85" />
<text x="200.0" y="50.0" font-size="11.0" text-anchor="middle" dominant-baseline="middle" fill="white" font-family="'Inter', 'Helvetica Neue', Helvetica, Arial, sans-serif" font-weight="500">PR 1: add thing</text>
<text x="88.0" y="175.0" font-size="11.0" text-anchor="end" dominant-baseline="middle" fill="#383838" font-family="'Inter', 'Helvetica Neue', Helvetica, Arial, sans-serif" font-weight="400">release</text>
<text x="212.0" y="125.0" font-size="11.0" text-anchor="start" dominant-baseline="middle" fill="#383838" font-family="'Inter', 'Helvetica Neue', Helvetica, Arial, sans-serif" font-weight="400">wip</text>
<text x="212.0" y="75.0" font-size="11.0" text-anchor="start" dominant-baseline="middle" fill="#383838" font-family="'Inter', 'Helvetica Neue', Helvetica, Arial, sans-serif" font-weight="400">polish</text>
<text x="88.0" y="125.0" font-size="11.0" text-anchor="end" dominant-baseline="middle" fill="#383838" font-family="'Inter', 'Helvetica Neue', Helvetica, Arial, sans-serif" font-weight="400">hotfix</text>
</svg>