<?xml version="1.0" encoding="UTF-8"?>
<svg xmlns="http://www.w3.org/2000/svg" xmlns:xlink="http://www.w3.org/1999/xlink"
     width="850.0" height="253.22" viewBox="0 0 850.0 253.22">
<defs>
</defs>
<path d="M100.0,98.94 L800.0,98.94" stroke="#b8b8b8" stroke-width="0.7" stroke-dasharray="4,4" />
<path d="M100.0,148.94 L800.0,148.94" stroke="#b8b8b8" stroke-width="0.7" stroke-dasharray="4,4" />
<path d="M100.0,198.94 L800.0,198.94" stroke="#b8b8b8" stroke-width="0.7" stroke-dasharray="4,4" />
<path d="M250.0,98.94 L250.0,128.94 A20,20,0,0,0,270.0,148.94 L350.0,148.94" stroke="#7b8fb2" stroke-width="2" fill="none" stroke-linecap="round" />
<path d="M250.0,98.94 L250.0,178.94 A20,20,0,0,0,270.0,198.94 L350.0,198.94" stroke="#6a9f8d" stroke-width="2" fill="none" stroke-linecap="round" />
<path d="M450.0,148.94 L530.0,148.94 A20,20,0,0,0,550.0,128.94 L550.0,98.94" stroke="#7b8fb2" stroke-width="2" fill="none" stroke-linecap="round" />
<path d="M350.0,198.94 L730.0,198.94 A20,20,0,0,0,750.0,178.94 L750.0,98.94" stroke="#6a9f8d" stroke-width="2" fill="none" stroke-linecap="round" stroke-dasharray="2,6" />
<path d="M150.0,98.94 L650.0,98.94" stroke="#5c6370" stroke-width="2" stroke-linecap="round" />
<path d="M350.0,148.94 L450.0,148.94" stroke="#7b8fb2" stroke-width="2" stroke-linecap="round" />
<rect x="87.48" y="89.44" width="37.519999999999996" height="19" rx="4" ry="4" fill="#5c6370" opacity="0.85" />
<text x="119.0" y="98.94" font-size="11" text-anchor="end" dominant-baseline="middle" fill="white" font-family="'Inter', 'Helvetica Neue', Helvetica, Arial, sans-serif" font-weight="500">main</text>
<rect x="268.34000000000003" y="139.44" width="56.66" height="19" rx="4" ry="4" fill="#7b8fb2" opacity="0.85" />
<text x="319.0" y="148.94" font-size="11" text-anchor="end" dominant-baseline="middle" fill="white" font-family="'Inter', 'Helvetica Neue', Helvetica, Arial, sans-serif" font-weight="500">feature</text>
<rect x="287.48" y="189.44" width="37.519999999999996" height="19" rx="4" ry="4" fill="#6a9f8d" opacity="0.85" />
<text x="319.0" y="198.94" font-size="11" text-anchor="end" dominant-baseline="middle" fill="white" font-family="'Inter', 'Helvetica Neue', Helvetica, Arial, sans-serif" font-weight="500">docs</text>
<rect x="689.77" y="164.44" width="120.46" height="19" rx="4" ry="4" fill="#6a9f8d" opacity="0.85" />
<text x="750.0" y="173.94" font-size="11" text-anchor="middle" dominant-baseline="middle" fill="white" font-family="'Inter', 'Helvetica Neue', Helvetica, Arial, sans-serif" font-weight="500">PR 1: docs update</text>
<circle cx="150.0" cy="98.94" r="5" fill="#5c6370" stroke="white" stroke-width="1.5" />
<circle cx="250.0" cy="98.94" r="7" fill="#5c6370" stroke="white" stroke-width="1.5" />
<circle cx="350.0" cy="148.94" r="5" fill="#7b8fb2" stroke="white" stroke-width="1.5" />
<circle cx="450.0" cy="148.94" r="5" fill="#7b8fb2" stroke="white" stroke-width="1.5" />
<circle cx="350.0" cy="198.94" r="5" fill="#6a9f8d" stroke="white" stroke-width="1.5" />
<circle cx="550.0" cy="98.94" r="5" fill="#5c6370" stroke="white" stroke-width="1.5" />
<circle cx="650.0" cy="98.94" r="5" fill="#5c6370" stroke="white" stroke-width="1.5" />
<text x="150.0" y="66.44" font-size="11" text-anchor="middle" dominant-baseline="middle" fill="#383838" font-family="'Inter', 'Helvetica Neue', Helvetica, Arial, sans-serif" font-weight="400">init</text>
<text x="150.0" y="81.44" font-size="9" text-anchor="middle" dominant-baseline="middle" fill="#707070" font-family="'Inter', 'Helvetica Neue', Helvetica, Arial, sans-serif" font-weight="400">7b14e2d</text>
<text x="250.0" y="66.44" font-size="11" text-anchor="middle" dominant-baseline="middle" fill="#383838" font-family="'Inter', 'Helvetica Neue', Helvetica, Arial, sans-serif" font-weight="700">release v1</text>
<text x="250.0" y="81.44" font-size="9" text-anchor="middle" dominant-baseline="middle" fill="#707070" font-family="'Inter', 'Helvetica Neue', Helvetica, Arial, sans-serif" font-weight="400">691ac26</text>
<text x="350.0" y="166.44" font-size="11" text-anchor="middle" dominant-baseline="middle" fill="#383838" font-family="'Inter', 'Helvetica Neue', Helvetica, Arial, sans-serif" font-weight="400">wip</text>
<text x="350.0" y="181.44" font-size="9" text-anchor="middle" dominant-baseline="middle" fill="#707070" font-family="'Inter', 'Helvetica Neue', Helvetica, Arial, sans-serif" font-weight="400">577eb2f</text>
<text x="450.0" y="166.44" font-size="11" text-anchor="middle" dominant-baseline="middle" fill="#383838" font-family="'Inter', 'Helvetica Neue', Helvetica, Arial, sans-serif" font-weight="400">polish</text>
<text x="450.0" y="181.44" font-size="9" text-anchor="middle" dominant-baseline="middle" fill="#707070" font-family="'Inter', 'Helvetica Neue', Helvetica, Arial, sans-serif" font-weight="400">02a38f5</text>
<text x="350.0" y="216.44" font-size="11" text-anchor="middle" dominant-baseline="middle" fill="#383838" font-family="'Inter', 'Helvetica Neue', Helvetica, Arial, sans-serif" font-weight="400">readme</text>
<text x="350.0" y="231.44" font-size="9" text-anchor="middle" dominant-baseline="middle" fill="#707070" font-family="'Inter', 'Helvetica Neue', Helvetica, Arial, sans-serif" font-weight="400">c2c3fad</text>
<text x="550.0" y="66.44" font-size="11" text-anchor="middle" dominant-baseline="middle" fill="#383838" font-family="'Inter', 'Helvetica Neue', Helvetica, Arial, sans-serif" font-weight="400">merge feature</text>
<text x="550.0" y="81.44" font-size="9" text-anchor="middle" dominant-baseline="middle" fill="#707070" font-family="'Inter', 'Helvetica Neue', Helvetica, Arial, sans-serif" font-weight="400">a4b68e8</text>
<text x="650.0" y="66.44" font-size="11" text-anchor="middle" dominant-baseline="middle" fill="#383838" font-family="'Inter', 'Helvetica Neue', Helvetica, Arial, sans-serif" font-weight="400">hotfix</text>
<text x="650.0" y="81.44" font-size="9" text-anchor="middle" dominant-baseline="middle" fill="#707070" font-family="'Inter', 'Helvetica Neue', Helvetica, Arial, sans-serif" font-weight="400">5c5d0aa</text>
</svg>