<?xml version="1.0" encoding="UTF-8"?>
<svg xmlns="http://www.w3.org/2000/svg" xmlns:xlink="http://www.w3.org/1999/xlink"
     width="406.492171" height="363.5" viewBox="0 0 406.492171 363.5">
<defs>
</defs>
<path d="M106.492171,12.5 L106.492171,337.5" stroke="#b8b8b8" stroke-width="0.7" stroke-dasharray="4,4" />
<path d="M206.49217099999998,12.5 L206.49217099999998,337.5" stroke="#b8b8b8" stroke-width="0.7" stroke-dasharray="4,4" />
<path d="M306.492171,12.5 L306.492171,337.5" stroke="#b8b8b8" stroke-width="0.7" stroke-dasharray="4,4" />
<path d="M106.492171,325.0 L186.49217099999998,325.0 A20,20,0,0,0,206.49217099999998,305.0 L206.49217099999998,275.0" stroke="#6a9f8d" stroke-width="2" fill="none" stroke-linecap="round" />
<path d="M106.492171,325.0 L286.492171,325.0 A20,20,0,0,0,306.492171,305.0 L306.492171,275.0" stroke="#7b8fb2" stroke-width="2" fill="none" stroke-linecap="round" />
<path d="M106.492171,125.0 L186.49217099999998,125.0 A20,20,0,0,0,206.49217099999998,105.0 L206.49217099999998,75.0" stroke="#b07b8f" stroke-width="2" fill="none" stroke-linecap="round" />
<path d="M206.49217099999998,275.0 L206.49217099999998,245.0 A20,20,0,0,0,186.49217099999998,225.0 L106.492171,225.0" stroke="#6a9f8d" stroke-width="2" fill="none" stroke-linecap="round" />
<path d="M306.492171,275.0 L306.492171,195.0 A20,20,0,0,0,286.492171,175.0 L106.492171,175.0" stroke="#7b8fb2" stroke-width="2" fill="none" stroke-linecap="round" />
<path d="M206.49217099999998,75.0 L206.49217099999998,45.0 A20,20,0,0,0,186.49217099999998,25.0 L106.492171,25.0" stroke="#b07b8f" stroke-width="2" fill="none" stroke-linecap="round" />
<path d="M106.492171,325.0 L106.492171,25.0" stroke="#5c6370" stroke-width="2" stroke-linecap="round" />
<rect x="86.75022849999999" y="340.5" width="39.483885" height="19.0" rx="4" ry="4" fill="#5c6370" opacity="0.85" />
<text x="106.49217099999998" y="350.0" font-size="11.0" text-anchor="middle" dominant-baseline="middle" fill="white" font-family="'Inter', 'Helvetica Neue', Helvetica, Arial, sans-serif" font-weight="500">main</text>
<rect x="174.51487899999998" y="290.5" width="63.954584000000004" height="19.0" rx="4" ry="4" fill="#6a9f8d" opacity="0.85" />
<text x="206.49217099999998" y="300.0" font-size="11.0" text-anchor="middle" dominant-baseline="middle" fill="white" font-family="'Inter', 'Helvetica Neue', Helvetica, Arial, sans-serif" font-weight="500">feature-a</text>
<rect x="283.20530249999996" y="290.5" width="46.573737" height="19.0" rx="4" ry="4" fill="#7b8fb2" opacity="0.85" />
<text x="306.492171" y="300.0" font-size="11.0" text-anchor="middle" dominant-baseline="middle" fill="white" font-family="'Inter', 'Helvetica Neue', Helvetica, Arial, sans-serif" font-weight="500">bugfix</text>
<rect x="174.3940275" y="90.5" width="64.19628700000001" height="19.0" rx="4" ry="4" fill="#b07b8f" opacity="0.85" />
<text x="206.49217099999998" y="100.0" font-size="11.0" text-anchor="middle" dominant-baseline="middle" fill="white" font-family="'Inter', 'Helvetica Neue', Helvetica, Arial, sans-serif" font-weight="500">feature-b</text>
<circle cx="106.492171" cy="325.0" r="5" fill="#5c6370" stroke="white" stroke-width="1.5" />
<circle cx="206.49217099999998" cy="275.0" r="5" fill="#6a9f8d" stroke="white" stroke-width="1.5" />
<circle cx="306.492171" cy="275.0" r="5" fill="#7b8fb2" stroke="white" stroke-width="1.5" />
<circle cx="106.492171" cy="225.0" r="5" fill="#5c6370" stroke="white" stroke-width="1.5" />
<circle cx="106.492171" cy="175.0" r="5" fill="#5c6370" stroke="white" stroke-width="1.5" />
<circle cx="106.492171" cy="125.0" r="5" fill="#5c6370" stroke="white" stroke-width="1.5" />
<circle cx="206.49217099999998" cy="75.0" r="5" fill="#b07b8f" stroke="white" stroke-width="1.5" />
<circle cx="106.492171" cy="25.0" r="5" fill="#5c6370" stroke="white" stroke-width="1.5" />
<text x="94.492171" y="317.5" font-size="11.0" text-anchor="end" dominant-baseline="middle" fill="#383838" font-family="'Inter', 'Helvetica Neue', Helvetica, Arial, sans-serif" font-weight="400">initial commit</text>
<text x="94.492171" y="332.5" font-size="9.0" text-anchor="end" dominant-baseline="middle" fill="#707070" font-family="'Inter', 'Helvetica Neue', Helvetica, Arial, sans-serif" font-weight="400">1b35060</text>
<text x="218.49217099999998" y="267.5" font-size="11.0" text-anchor="start" dominant-baseline="middle" fill="#383838" font-family="'Inter', 'Helvetica Neue', Helvetica, Arial, sans-serif" font-weight="400">start feature A</text>
<text x="218.49217099999998" y="282.5" font-size="9.0" text-anchor="start" dominant-baseline="middle" fill="#707070" font-family="'Inter', 'Helvetica Neue', Helvetica, Arial, sans-serif" font-weight="400">a8ba520</text>
<text x="318.492171" y="267.5" font-size="11.0" text-anchor="start" dominant-baseline="middle" fill="#383838" font-family="'Inter', 'Helvetica Neue', Helvetica, Arial, sans-serif" font-weight="400">fix #42</text>
<text x="318.492171" y="282.5" font-size="9.0" text-anchor="start" dominant-baseline="middle" fill="#707070" font-family="'Inter', 'Helvetica Neue', Helvetica, Arial, sans-serif" font-weight="400">ff2bf3a</text>
<text x="94.492171" y="217.5" font-size="11.0" text-anchor="end" dominant-baseline="middle" fill="#383838" font-family="'Inter', 'Helvetica Neue', Helvetica, Arial, sans-serif" font-weight="400">merge feature A</text>
<text x="94.492171" y="232.5" font-size="9.0" text-anchor="end" dominant-baseline="middle" fill="#707070" font-family="'Inter', 'Helvetica Neue', Helvetica, Arial, sans-serif" font-weight="400">c521ba8</text>
<text x="94.492171" y="167.5" font-size="11.0" text-anchor="end" dominant-baseline="middle" fill="#383838" font-family="'Inter', 'Helvetica Neue', Helvetica, Arial, sans-serif" font-weight="400">merge bugfix</text>
<text x="94.492171" y="182.5" font-size="9.0" text-anchor="end" dominant-baseline="middle" fill="#707070" font-family="'Inter', 'Helvetica Neue', Helvetica, Arial, sans-serif" font-weight="400">dca1553</text>
<text x="94.492171" y="117.5" font-size="11.0" text-anchor="end" dominant-baseline="middle" fill="#383838" font-family="'Inter', 'Helvetica Neue', Helvetica, Arial, sans-serif" font-weight="400">release prep</text>
<text x="94.492171" y="132.5" font-size="9.0" text-anchor="end" dominant-baseline="middle" fill="#707070" font-family="'Inter', 'Helvetica Neue', Helvetica, Arial, sans-serif" font-weight="400">b2ed627</text>
<text x="218.49217099999998" y="67.5" font-size="11.0" text-anchor="start" dominant-baseline="middle" fill="#383838" font-family="'Inter', 'Helvetica Neue', Helvetica, Arial, sans-serif" font-weight="400">feature B</text>
<text x="218.49217099999998" y="82.5" font-size="9.0" text-anchor="start" dominant-baseline="middle" fill="#707070" font-family="'Inter', 'Helvetica Neue', Helvetica, Arial, sans-serif" font-weight="400">b8e625f</text>
<text x="94.492171" y="17.5" font-size="11.0" text-anchor="end" dominant-baseline="middle" fill="#383838" font-family="'Inter', 'Helvetica Neue', Helvetica, Arial, sans-serif" font-weight="400">merge feature B</text>
<text x="94.492171" y="32.5" font-size="9.0" text-anchor="end" dominant-baseline="middle" fill="#707070" font-family="'Inter', 'Helvetica Neue', Helvetica, Arial, sans-serif" font-weight="400">d193154</text>
</svg>