<?xml version="1.0" encoding="UTF-8"?>
<svg xmlns="http://www.w3.org/2000/svg" xmlns:xlink="http://www.w3.org/1999/xlink"
     width="500.0" height="363.5" viewBox="0 0 500.0 363.5">
<defs>
</defs>
<path d="M100.0,12.5 L100.0,337.5" stroke="#b8b8b8" stroke-width="0.7" stroke-dasharray="4,4" />
<path d="M200.0,12.5 L200.0,337.5" stroke="#b8b8b8" stroke-width="0.7" stroke-dasharray="4,4" />
<path d="M300.0,12.5 L300.0,337.5" stroke="#b8b8b8" stroke-width="0.7" stroke-dasharray="4,4" />
<path d="M400.0,12.5 L400.0,337.5" stroke="#b8b8b8" stroke-width="0.7" stroke-dasharray="4,4" />
<path d="M100.0,325.0 L100.0,25.0" stroke="#4a4f5a" stroke-width="2" stroke-linecap="round" />
<path d="M100.0,325.0 L180.0,325.0 A20,20,0,0,0,200.0,305.0 L200.0,275.0" stroke="#56b393" stroke-width="2" fill="none" stroke-linecap="round" />
<path d="M200.0,275.0 L200.0,245.0 A20,20,0,0,0,180.0,225.0 L100.0,225.0" stroke="#56b393" stroke-width="2" fill="none" stroke-linecap="round" />
<path d="M100.0,325.0 L280.0,325.0 A20,20,0,0,0,300.0,305.0 L300.0,275.0" stroke="#6b8bc2" stroke-width="2" fill="none" stroke-linecap="round" />
<path d="M200.0,175.0 L200.0,145.0 A20,20,0,0,0,180.0,125.0 L100.0,125.0" stroke="#6b8bc2" stroke-width="2" fill="none" stroke-linecap="round" />
<path d="M300.0,225.0 L300.0,220.0 A20,20,0,0,0,280.0,200.0 L220.0,200.0 A20,20,0,0,1,200.0,180.0 L200.0,175.0" stroke="#6b8bc2" stroke-width="2" fill="none" stroke-linecap="round" />
<path d="M300.0,275.0 L300.0,225.0" stroke="#6b8bc2" stroke-width="2" stroke-linecap="round" />
<path d="M100.0,325.0 L380.0,325.0 A20,20,0,0,0,400.0,305.0 L400.0,275.0" stroke="#c06b8b" stroke-width="2" fill="none" stroke-linecap="round" />
<path d="M300.0,125.0 L300.0,95.0 A20,20,0,0,0,280.0,75.0 L100.0,75.0" stroke="#c06b8b" stroke-width="2" fill="none" stroke-linecap="round" />
<path d="M400.0,225.0 L400.0,220.0 A20,20,0,0,0,380.0,200.0 L320.0,200.0 A20,20,0,0,1,300.0,180.0 L300.0,175.0" stroke="#c06b8b" stroke-width="2" fill="none" stroke-linecap="round" />
<path d="M400.0,275.0 L400.0,225.0" stroke="#c06b8b" stroke-width="2" stroke-linecap="round" />
<path d="M300.0,175.0 L300.0,125.0" stroke="#c06b8b" stroke-width="2" stroke-linecap="round" />
<circle cx="100.0" cy="325.0" r="5" fill="#4a4f5a" stroke="white" stroke-width="1.5" />
<circle cx="200.0" cy="275.0" r="5" fill="#56b393" stroke="white" stroke-width="1.5" />
<circle cx="300.0" cy="275.0" r="5" fill="#6b8bc2" stroke="white" stroke-width="1.5" />
<circle cx="400.0" cy="275.0" r="5" fill="#c06b8b" stroke="white" stroke-width="1.5" />
<circle cx="100.0" cy="225.0" r="5.5" fill="white" stroke="#4a4f5a" stroke-width="2" />
<path d="M97.5,225.4 L99.2,227.1 L102.6,223.4" stroke="#4a4f5a" stroke-width="1.6" fill="none" stroke-linecap="round" stroke-linejoin="round" />
<circle cx="200.0" cy="175.0" r="5" fill="#6b8bc2" stroke="white" stroke-width="1.5" />
<circle cx="400.0" cy="225.0" r="5" fill="#c06b8b" stroke="white" stroke-width="1.5" />
<circle cx="100.0" cy="125.0" r="5.5" fill="white" stroke="#4a4f5a" stroke-width="2" />
<path d="M97.5,125.4 L99.2,127.1 L102.6,123.4" stroke="#4a4f5a" stroke-width="1.6" fill="none" stroke-linecap="round" stroke-linejoin="round" />
<circle cx="300.0" cy="125.0" r="5" fill="#c06b8b" stroke="white" stroke-width="1.5" />
<circle cx="100.0" cy="75.0" r="5.5" fill="white" stroke="#4a4f5a" stroke-width="2" />
<path d="M97.5,75.4 L99.2,77.1 L102.6,73.4" stroke="#4a4f5a" stroke-width="1.6" fill="none" stroke-linecap="round" stroke-linejoin="round" />
<circle cx="100.0" cy="25.0" r="5" fill="#4a4f5a" stroke="white" stroke-width="1.5" />
<rect x="80.2580575" y="340.5" width="39.483885" height="19.0" rx="4" ry="4" fill="#4a4f5a" opacity="0.85" />
<text x="100.0" y="350.0" font-size="11.0" text-anchor="middle" dominant-baseline="middle" fill="white" font-family="'Inter', 'Helvetica Neue', Helvetica, Arial, sans-serif" font-weight="500">main</text>
<rect x="177.153566" y="290.5" width="45.692868" height="19.0" rx="4" ry="4" fill="#56b393" opacity="0.85" />
<text x="200.0" y="300.0" font-size="11.0" text-anchor="middle" dominant-baseline="middle" fill="white" font-family="'Inter', 'Helvetica Neue', Helvetica, Arial, sans-serif" font-weight="500">feat-a</text>
<rect x="277.0327145" y="290.5" width="45.934571" height="19.0" rx="4" ry="4" fill="#6b8bc2" opacity="0.85" />
<text x="300.0" y="300.0" font-size="11.0" text-anchor="middle" dominant-baseline="middle" fill="white" font-family="'Inter', 'Helvetica Neue', Helvetica, Arial, sans-serif" font-weight="500">feat-b</text>
<rect x="377.381838" y="290.5" width="45.236324" height="19.0" rx="4" ry="4" fill="#c06b8b" opacity="0.85" />
<text x="400.0" y="300.0" font-size="11.0" text-anchor="middle" dominant-baseline="middle" fill="white" font-family="'Inter', 'Helvetica Neue', Helvetica, Arial, sans-serif" font-weight="500">feat-c</text>
<text x="88.0" y="317.5" font-size="11.0" text-anchor="end" dominant-baseline="middle" fill="#383838" font-family="'Inter', 'Helvetica Neue', Helvetica, Arial, sans-serif" font-weight="400">project start</text>
<text x="88.0" y="332.5" font-size="9.0" text-anchor="end" dominant-baseline="middle" fill="#707070" font-family="'Inter', 'Helvetica Neue', Helvetica, Arial, sans-serif" font-weight="400">7b14e2d</text>
<text x="212.0" y="267.5" font-size="11.0" text-anchor="start" dominant-baseline="middle" fill="#383838" font-family="'Inter', 'Helvetica Neue', Helvetica, Arial, sans-serif" font-weight="400">feature a</text>
<text x="212.0" y="282.5" font-size="9.0" text-anchor="start" dominant-baseline="middle" fill="#707070" font-family="'Inter', 'Helvetica Neue', Helvetica, Arial, sans-serif" font-weight="400">1798b1d</text>
<text x="312.0" y="267.5" font-size="11.0" text-anchor="start" dominant-baseline="middle" fill="#383838" font-family="'Inter', 'Helvetica Neue', Helvetica, Arial, sans-serif" font-weight="400">feature b</text>
<text x="312.0" y="282.5" font-size="9.0" text-anchor="start" dominant-baseline="middle" fill="#707070" font-family="'Inter', 'Helvetica Neue', Helvetica, Arial, sans-serif" font-weight="400">d771b44</text>
<text x="412.0" y="267.5" font-size="11.0" text-anchor="start" dominant-baseline="middle" fill="#383838" font-family="'Inter', 'Helvetica Neue', Helvetica, Arial, sans-serif" font-weight="400">feature c</text>
<text x="412.0" y="282.5" font-size="9.0" text-anchor="start" dominant-baseline="middle" fill="#707070" font-family="'Inter', 'Helvetica Neue', Helvetica, Arial, sans-serif" font-weight="400">4a362a0</text>
<text x="88.0" y="217.5" font-size="11.0" text-anchor="end" dominant-baseline="middle" fill="#383838" font-family="'Inter', 'Helvetica Neue', Helvetica, Arial, sans-serif" font-weight="400">merge a</text>
<text x="88.0" y="232.5" font-size="9.0" text-anchor="end" dominant-baseline="middle" fill="#707070" font-family="'Inter', 'Helvetica Neue', Helvetica, Arial, sans-serif" font-weight="400">199f97c</text>
<text x="212.0" y="167.5" font-size="11.0" text-anchor="start" dominant-baseline="middle" fill="#383838" font-family="'Inter', 'Helvetica Neue', Helvetica, Arial, sans-serif" font-weight="400">more b</text>
<text x="212.0" y="182.5" font-size="9.0" text-anchor="start" dominant-baseline="middle" fill="#707070" font-family="'Inter', 'Helvetica Neue', Helvetica, Arial, sans-serif" font-weight="400">12f60f6</text>
<text x="412.0" y="217.5" font-size="11.0" text-anchor="start" dominant-baseline="middle" fill="#383838" font-family="'Inter', 'Helvetica Neue', Helvetica, Arial, sans-serif" font-weight="400">more c</text>
<text x="412.0" y="232.5" font-size="9.0" text-anchor="start" dominant-baseline="middle" fill="#707070" font-family="'Inter', 'Helvetica Neue', Helvetica, Arial, sans-serif" font-weight="400">b1e760e</text>
<text x="88.0" y="117.5" font-size="11.0" text-anchor="end" dominant-baseline="middle" fill="#383838" font-family="'Inter', 'Helvetica Neue', Helvetica, Arial, sans-serif" font-weight="400">merge b</text>
<text x="88.0" y="132.5" font-size="9.0" text-anchor="end" dominant-baseline="middle" fill="#707070" font-family="'Inter', 'Helvetica Neue', Helvetica, Arial, sans-serif" font-weight="400">e4f45b5</text>
<text x="312.0" y="117.5" font-size="11.0" text-anchor="start" dominant-baseline="middle" fill="#383838" font-family="'Inter', 'Helvetica Neue', Helvetica, Arial, sans-serif" font-weight="400">polish c</text>
<text x="312.0" y="132.5" font-size="9.0" text-anchor="start" dominant-baseline="middle" fill="#707070" font-family="'Inter', 'Helvetica Neue', Helvetica, Arial, sans-serif" font-weight="400">62a6989</text>
<text x="88.0" y="67.5" font-size="11.0" text-anchor="end" dominant-baseline="middle" fill="#383838" font-family="'Inter', 'Helvetica Neue', Helvetica, Arial, sans-serif" font-weight="400">merge c</text>
<text x="88.0" y="82.5" font-size="9.0" text-anchor="end" dominant-baseline="middle" fill="#707070" font-family="'Inter', 'Helvetica Neue', Helvetica, Arial, sans-serif" font-weight="400">0ea7150</text>
<text x="88.0" y="17.5" font-size="11.0" text-anchor="end" dominant-baseline="middle" fill="#383838" font-family="'Inter', 'Helvetica Neue', Helvetica, Arial, sans-serif" font-weight="400">release</text>
<text x="88.0" y="32.5" font-size="9.0" text-anchor="end" dominant-baseline="middle" fill="#707070" font-family="'Inter', 'Helvetica Neue', Helvetica, Arial, sans-serif" font-weight="400">3e9678b</text>
</svg>